<?xml version="1.0" encoding="utf-8"?>
<!-- Generator: Adobe Illustrator 18.0.0, SVG Export Plug-In . SVG Version: 6.00 Build 0)  -->
<!DOCTYPE svg PUBLIC "-//W3C//DTD SVG 1.1//EN" "http://www.w3.org/Graphics/SVG/1.1/DTD/svg11.dtd">
<svg version="1.1" id="Layer_1" xmlns="http://www.w3.org/2000/svg" xmlns:xlink="http://www.w3.org/1999/xlink" x="0px" y="0px"
	 viewBox="0 0 60 60" enable-background="new 0 0 60 60" xml:space="preserve">
<path fill="#FFFFFF" d="M33.6,17.1c0.2-0.5,0.5-0.9,0.8-1.4c0.1-0.2,0.3-0.4,0.4-0.6c-0.1,0-0.2,0-0.2,0.1c-0.1,0.1-0.2,0.3-0.3,0.4
	C34,15.7,34,15.9,33.9,16c-0.1,0.1-0.2,0.1-0.2,0.3c-0.1,0.1-0.1,0.2-0.2,0.3c0,0.1-0.1,0-0.2,0.1c-0.1,0.2-0.2,0.4-0.3,0.6
	c0,0.1-0.1,0.1-0.2,0.3c-0.1,0.2-0.2,0.4-0.2,0.7c0,0.1-0.1,0.1-0.2,0.3c-0.1,0.1-0.1,0.2-0.1,0.4c0,0.2-0.1,0.2-0.2,0.4
	C32,19.6,32,19.8,32,20c0,0-0.1,0.1-0.1,0.3c-0.1,0.2-0.1,0.4-0.2,0.6c0,0.1-0.1,0.2-0.2,0.5c-0.1,0.3,0,0.5,0,0.6
	c-0.1,0.4-0.1,0.7-0.1,1.1c0,0.2,0,0.4,0,0.6c0,0.6-0.1,1-0.1,1.7c0,0.3,0,0.8,0.1,1.2c0.1,0.4,0.1,0.8,0.1,0.8H33
	c0,0-0.1-0.8,0-1.7c0-0.5,0.2-1.1,0.3-1.4c0.1-0.5,0.2-0.7,0.5-1.4c0,0,0-0.1-0.1,0c-0.1,0.1-0.3,0.2-0.4,0.4
	c-0.2,0.3-0.3,0.5-0.4,0.8c-0.2,0.3-0.3,0.6-0.4,1c0-0.3,0-0.5,0.1-0.8c0.1-0.3,0.1-0.5,0.2-0.7c0.1-0.4,0.3-0.7,0.5-1.1
	c0.1-0.2,0.3-0.4,0.5-0.6c0.2-0.2,0.4-0.4,0.6-0.6c-0.2-0.1-0.5,0.1-0.6,0.1c-0.3,0.1-0.5,0.4-0.6,0.4C33,21.8,33,21.9,32.9,22
	c-0.1,0.1-0.1,0.2-0.2,0.3c-0.1,0.1-0.2,0.2-0.3,0.4c0,0.1-0.1,0.4-0.3,0.4c0.2-1.2,0.6-2.3,1.3-3.2c0.4-0.6,0.9-1.1,1.5-1.6
	c0.1-0.1,0.1-0.1,0-0.1c-0.6,0.1-0.7,0.4-0.8,0.4c-0.1,0-0.2,0.1-0.3,0.2c-0.1,0.1-0.1,0.3-0.2,0.3c-0.1,0.1-0.2,0.2-0.3,0.3
	c0,0.1-0.1,0.2-0.2,0.3c-0.2,0.1-0.3,0.2-0.4,0.4c-0.1,0.1-0.1,0.2-0.2,0.3c-0.1,0.1-0.2,0.2-0.3,0.3c0.1-0.5,0.3-1.1,0.5-1.6
	C33,18.3,33.3,17.7,33.6,17.1z"/>
<path fill="#FFFFFF" d="M35,21.1c0.5-1.2,1.1-2.1,1.8-3.2c0.1-0.1,0.2-0.3,0.3-0.4c0-0.1,0.2-0.3,0.3-0.4c0.2-0.4,0.3-0.5,0.6-0.8
	c0.1-0.1,0.1-0.2,0.2-0.3c0.1-0.2-0.1-0.3-0.2-0.5c0-0.2,0-0.4,0.1-0.6c0.1-0.1,0.1-0.1,0.2-0.3c0.1-0.3,0.1-0.9,0.2-0.9
	c0,0.3,0,0.6,0,0.9c0.1,0.3,0.2,0.5,0.3,0.8c0.2,0,0.4,0,0.6,0c0.2,0,0.4,0,0.6-0.1c0.3-0.1,0.5-0.2,0.7-0.3
	c-0.2,0.2-0.5,0.3-0.8,0.4c-0.1,0.1-0.2,0.1-0.2,0.2c-0.1,0.2-0.2,0.3-0.3,0.4c-0.3,0.1-0.5,0.1-0.9,0.1c-0.5,0.5-0.9,1.2-1.4,1.9
	c-1.1,1.8-2,3.7-2.5,5.6c0.2-0.3,0.3-0.7,0.5-1c0.2-0.4,0.5-0.7,0.7-1c0.6-0.8,1.2-1.5,1.9-2.3c0.5-0.6,1.2-1.1,1.8-1.5
	c0.9-0.6,2-0.9,2.9-0.7c0.1,0,0.3,0.1,0.3,0.1c-1.2-0.2-2.3,0.3-3.1,0.9c-0.6,0.5-1.2,1-1.7,1.7c-0.3,0.3-0.5,0.7-0.8,1
	c-0.3,0.4-0.5,0.7-0.7,1.1c-0.8,1.3-1.4,2.7-1.8,4.1c0,0,0,0.1,0,0.1c0,0,0.1-0.1,0.1-0.1c0.6-1,1.3-1.9,2.2-2.5
	c0.1-0.1,0.2-0.2,0.2-0.2c0.1-0.4-0.2-0.6,0.2-1.1c0.1-0.1,0.2-0.2,0.3-0.3c0.2-0.3,0.3-0.7,0.4-0.8c-0.1,0.3-0.2,0.6-0.3,0.9
	c0,0.3,0,0.6,0.1,1c0.2,0,0.4,0.1,0.6,0.2c0.3,0.1,0.5,0.1,0.7,0c0.1,0,0.3-0.1,0.5-0.1c-0.3,0.2-0.6,0.1-0.9,0.3
	c-0.2,0.1-0.3,0.3-0.5,0.3c-0.2,0-0.4,0-0.6-0.1c-0.1-0.1-0.2-0.1-0.3,0c-0.3,0.1-0.5,0.3-0.7,0.6c-0.5,0.6-1,1.2-1.4,2
	c-0.1,0.2-0.2,0.4-0.3,0.6c0,0.1-0.2,0.4-0.2,0.4h-1.4c0,0,0-0.4,0-0.6c0-0.3,0.1-0.5,0.1-0.8c0.1-0.4,0.2-0.8,0.3-1.3
	c0.1-0.4,0.2-0.8,0.4-1.2C34.4,22.7,34.7,21.9,35,21.1z"/>
<path fill="#FFFFFF" d="M21.2,32.2c0.5-0.4,0.9-0.7,1.4-1c0.2-0.1,0.5-0.3,0.8-0.4c0.9-0.4,2.1-0.7,3.2-0.7c0,0,0,0,0,0h8.4
	c0,0,0,0,0,0c0.3,0,0.5,0.1,0.7,0.2c0.2,0.2,0.2,0.4,0.3,0.6c0,0.2,0,0.4,0,0.6c0,0.2-0.1,0.3-0.2,0.4c-0.1,0.1-0.1,0.2-0.2,0.2
	c-0.1,0.1-0.3,0.1-0.4,0.1c0,0-0.1,0-0.1,0c0,0-9.8,0-9.8,0s-0.1,0-0.1,0c-0.6,0-1.3,0-2,0.1c-0.5,0.1-1,0.1-1.4,0.3
	c-0.6,0.2-1.2,0.4-1.7,0.6C20.4,32.9,20.8,32.6,21.2,32.2z"/>
<path fill="#FFFFFF" d="M24.1,28.9c0.5-0.4,1.1-0.7,1.7-0.9c0.3-0.1,0.7-0.2,1-0.3c0.4-0.1,0.8-0.2,1.1-0.2c0.1,0,0,0,0,0l7.2,0
	c0,0,0.2,0,0.2,0c0.1,0,0.2,0.1,0.3,0.1c0.1,0.1,0.3,0.2,0.3,0.3c0.2,0.3,0.2,0.6,0.2,1c-0.1,0.4-0.4,0.8-0.8,0.9
	c-0.1,0-0.2,0-0.2,0h-7.8c0,0-0.5,0-0.7,0c-0.4,0-0.8,0.1-1.1,0.1c-0.3,0-0.6,0.1-0.9,0.2c-1,0.3-1.8,0.7-2.7,1.1
	C22.5,30.3,23.3,29.5,24.1,28.9z"/>
<path fill="#FFFFFF" d="M20.1,33.8c1.3-0.7,2.8-1,4.1-1.1c0,0,0.1,0,0.1,0l10.8,0c0,0,0,0,0.1,0c0.7,0,0.9,0.6,0.9,1.2
	c0,0.2,0,0.3-0.1,0.5c-0.1,0.2-0.1,0.3-0.2,0.4c0,0-0.2,0.1-0.2,0.2c-0.1,0-0.3,0-0.3,0c0,0-8,0-8,0c0,0-0.4,0-0.7,0
	c-0.2,0-0.4,0-0.6-0.1c-0.5-0.1-1-0.3-1.5-0.4c-0.3-0.1-0.7-0.2-1-0.2c-0.6-0.1-1.3-0.1-2-0.1c-0.8,0.1-1.6,0.2-2.3,0.5
	C19.2,34.3,19.7,34,20.1,33.8z"/>
<path fill="#FFFFFF" d="M25.9,37.2c-0.4-0.1-0.7-0.3-1.1-0.5c-0.4-0.3-0.6-0.5-1.2-0.7c-0.5-0.2-0.8-0.4-1.5-0.7
	c-0.3-0.1-0.8-0.3-1.3-0.3c-0.6-0.1-1.2-0.2-1.2-0.2s0.1-0.1,0.2-0.1c0.6-0.2,1.2-0.3,1.8-0.3c0.6,0,1.1,0,1.7,0.1
	c0.2,0,0.5,0.1,0.8,0.2c0.9,0.2,1.8,0.6,2.7,0.6c0,0,0,0,0,0h8c0,0-0.1,0,0,0c0.2,0,0.7,0.1,0.9,0.4c0.2,0.4,0.3,0.8,0.1,1.3
	c-0.1,0.1-0.1,0.3-0.3,0.4c-0.1,0.1-0.3,0.2-0.4,0.2c0,0-0.1,0-0.1,0h-7c0,0,0,0,0,0C27.5,37.5,26.6,37.4,25.9,37.2z"/>
<path fill="#FFFFFF" d="M29.1,39.7c-0.2-0.2-0.5-0.5-0.7-0.8c-0.5-0.6-0.7-1.1-0.7-1.1h4.7c0,0,0,0.5-0.1,1.2
	c-0.1,0.6-0.3,1.2-0.5,1.6c0,0.5,0.2,0.9,0.2,1.3c-0.4,0.2-0.8,0.5-1.1,0.8c0,0-0.1,0-0.1,0c-0.2-0.7-0.3-1.3-0.4-2
	C29.8,40.3,29.4,40,29.1,39.7z"/>
<path fill="#FFFFFF" d="M33.9,39.3c-0.1-0.2-0.2-0.6-0.4-0.8c0,0.2,0,0.3,0,0.4c0,0.1-0.1,0.1-0.2,0c-0.1-0.2-0.1-0.4-0.2-0.6
	C33,38,33,37.8,33,37.8l0.8,0c0,0,0,0,0,0.1c0,0.2,0,0.4,0.1,0.6c0.1,0.3,0.2,0.6,0.3,0.8c0.1,0.2,0.2,0.5,0.3,0.7c0,0,0,0.1,0,0.1
	c0,0-0.1,0-0.1,0C34.2,39.9,34.1,39.6,33.9,39.3z"/>
<path fill="#FFFFFF" d="M35.1,39.8c-0.1-0.3-0.3-0.6-0.3-0.9c0.1,0.1,0.1,0.2,0.2,0.3c0.1,0,0.2,0,0.1-0.1c-0.1-0.2-0.1-0.3-0.2-0.6
	c-0.1-0.4-0.2-0.7-0.2-0.7h-0.8c0,0,0,0.3,0.2,0.8c0.2,0.4,0.4,0.9,0.7,1.4c0.2,0.4,0.4,0.7,0.7,1c0.1,0.1,0.3,0,0.2-0.1
	C35.5,40.5,35.3,40.2,35.1,39.8z"/>
<path fill="#FFFFFF" d="M40.2,13c-0.2,0.1-0.3,0.2-0.4,0.3c-0.1,0.1-0.1,0.3,0,0.4c0.2,0.2,0.5,0,0.6-0.2c0.1-0.2,0.1-0.7,0.1-0.7
	S40.3,13,40.2,13z"/>
<path fill="#FFFFFF" d="M40.4,14.1c0.1-0.1,0.2-0.3,0.4-0.4c0.2-0.1,0.4-0.2,0.6-0.3c0.1-0.1,0.2-0.2,0.2-0.2s-0.1,0-0.2,0.1
	c-0.4,0.2-0.8,0.5-0.9,0.5C40.3,14,40,14,39.7,14c0-0.3-0.1-0.4-0.1-0.7c0-0.1,0-0.3,0.1-0.4c0.1-0.4,0.1-0.6,0.1-0.6
	s-0.1,0.1-0.1,0.2c0,0.2,0,0.2-0.1,0.4c0,0.2-0.1,0.4-0.2,0.5c-0.2,0.2-0.4,0.5-0.2,0.8c0.1,0.2,0.2,0.1,0.3,0.2
	c0,0,0.1,0.1,0.2,0.2C39.9,14.7,40.3,14.4,40.4,14.1z"/>
<path fill="#FFFFFF" d="M40,15c0.1-0.2,0.2-0.3,0.4-0.4c0.3-0.2,0.4-0.3,0.6-0.3c0.1,0,0.1-0.1,0.1-0.1c-0.1,0-0.3,0.2-0.6,0.3
	c-0.2,0.1-0.5,0.3-0.7,0.3c-0.1,0-0.1,0-0.2,0c-0.1,0-0.3,0-0.3,0s0-0.2-0.1-0.4c0-0.1-0.1-0.2-0.1-0.3c0-0.1,0-0.2,0-0.3
	c0-0.3,0.1-0.5,0.1-0.8c-0.2,0.3-0.1,0.8-0.3,1c-0.1,0.1-0.1,0.2-0.2,0.3c-0.1,0.2-0.1,0.5,0,0.7c0.1,0.1,0.3,0.1,0.3,0.1
	c0,0,0.1,0.2,0.3,0.2C39.5,15.4,39.9,15.3,40,15z"/>
<path fill="#FFFFFF" d="M40.1,21.6c0.1-0.1,0.1-0.3,0.2-0.5c-0.2,0-0.2,0.1-0.5,0.1c-0.1,0-0.2,0.1-0.2,0.1
	c-0.1,0.1-0.2,0.2-0.2,0.4c0,0.1,0.1,0.1,0.1,0.1C39.8,22,40,21.8,40.1,21.6z"/>
<path fill="#FFFFFF" d="M40.4,22c0.3-0.1,0.6-0.2,0.7-0.2c-0.3,0.1-0.6,0.2-0.9,0.3c-0.2,0.1-0.4,0.2-0.6,0.4
	c-0.2,0.1-0.4,0.2-0.6,0.1c-0.1,0-0.1-0.2-0.2-0.2c0,0-0.1-0.1-0.2-0.1c-0.1,0-0.1-0.2-0.1-0.2c0-0.4,0.3-0.5,0.6-0.8
	c0.2-0.2,0.5-0.9,0.7-1c0,0.2-0.3,0.7-0.5,1c-0.1,0.3-0.1,0.5-0.1,0.8c0.2,0,0.4,0.1,0.6,0.1C40,22,40.2,22,40.4,22z"/>
<path fill="#FFFFFF" d="M40.1,22.6c-0.2,0-0.3,0.1-0.5,0.1c-0.5,0.1-0.7-0.1-1-0.1c0-0.4-0.1-0.6,0-0.9c0.1-0.2,0.2-0.5,0.3-0.7
	c0.1-0.2,0.1-0.3,0.1-0.3s-0.1,0.2-0.4,0.8c-0.1,0.2-0.3,0.3-0.5,0.5c-0.2,0.2-0.3,0.7,0.1,0.9c0.1,0,0.1,0.2,0.1,0.2
	c0.2,0.2,0.7,0.2,1-0.1C39.5,22.7,39.8,22.7,40.1,22.6c0.2,0,0.3,0,0.3,0S40.3,22.5,40.1,22.6z"/>
<path fill="#FFFFFF" d="M31.5,19.4c0.1-0.5,0.3-1,0.3-1.5c0.1-0.8-0.1-1.5-0.6-2.1c0,0.2,0.1,0.5,0.1,0.7c0,0.3,0,0.7-0.1,1
	c-0.1,0.2-0.2,0.5-0.3,0.7c-0.1,0.3-0.3,0.5-0.5,0.8c-0.5,0.7-1.3,1.9-1.3,1.9s-0.1,0-0.1,0c0-0.2,0.4-0.7,0.6-1
	c0.4-0.7,0.7-1,1.1-1.6c0.2-0.4,0.4-0.8,0.5-1.2c0.1-0.8-0.3-1.8-1-2.1c0.1,0.6,0.1,1.5-0.2,1.8c-0.6,0.7-1,1.2-1.4,2.1
	c0,0-0.1-0.1-0.2-0.2c-0.1-0.1,0-0.3-0.1-0.4c0-0.1-0.1-0.2-0.1-0.2c-0.1-0.2-0.3-0.2-0.3-0.2c0-0.1,0-0.2-0.1-0.3
	c-0.1-0.1-0.2-0.1-0.3-0.2c-0.1-0.1-0.1-0.3-0.3-0.4c-0.1,0-0.1-0.2-0.2-0.3c-0.2-0.2-0.5-0.2-0.5-0.2c-0.1,0-0.2-0.2-0.4-0.2
	c-0.2,0-0.3,0.1-0.4,0.1c-0.3-0.1-0.5-0.1-0.8,0.2c-0.1,0.1-0.2,0-0.4,0.2c-0.2,0.1-0.2,0.2-0.3,0.3c-0.2,0-0.3,0.2-0.3,0.3
	c0,0.1-0.1,0.2-0.1,0.3c0,0.1-0.1,0.3-0.1,0.4c0,0.1,0,0.2,0,0.3c0,0.1-0.1,0.2-0.1,0.3c0,0,0,0.2,0,0.2c0,0.1,0,0.2-0.1,0.3
	c0,0.1-0.1,0.2-0.1,0.3c0,0.1,0.1,0.2,0,0.3c-0.1,0.2-0.2,0.5,0,0.8c0,0.1-0.1,0.2-0.1,0.4c0,0.2,0.1,0.4,0.2,0.5c0,0-0.1,0-0.1,0.1
	c-0.6-0.6-1-1.1-1.7-1.6c-0.4-0.3-0.8-0.6-1.2-0.8c-1.2-0.6-2.5-1-3.7-0.9c0.5,0.4,1,0.6,1.5,1c0.4,0.4,0.8,0.7,1.3,1.2
	c0.6,0.7,1.2,1.3,1.7,2.1c0.2,0.2,0.3,0.4,0.4,0.6c0.1,0.2,0.3,0.5,0.5,0.7c0.7,1.2,1.3,2.3,1.8,3.5c0.2,0.3,0.3,0.7,0.4,1
	c0,0.1,0.1,0,0.1,0c0.2-0.1,0.4-0.2,0.6-0.3c0.2-0.1,0.3-0.1,0.5-0.2c0.4-0.1,0.8-0.2,1.2-0.3c0.7-0.1,1.9-0.1,1.9-0.1l2.3,0
	c0,0,0,0,0.1,0c0-0.7-0.2-1.3-0.2-2c0-0.5,0-1.1,0-1.6C31,22.3,31.2,20.8,31.5,19.4z M28.8,20.6c0,0.1,0.1,0.2,0.1,0.3
	c-0.1,0.2-0.2,0.2-0.4,0.2c-0.1,0-0.4,0.1-0.5,0c-0.1-0.1-0.2-0.4,0-0.5C28.2,20.5,28.7,20.3,28.8,20.6z M27.2,23.2
	c-0.2,0.2-0.4,0.2-0.7,0.2c-0.1,0-0.2-0.1-0.3-0.1c-0.1-0.2-0.2-0.4,0-0.5c0.1-0.1,0.3-0.1,0.5-0.2c0.1,0,0.2-0.1,0.3,0
	C27.2,22.8,27.3,23.1,27.2,23.2z M27.5,23.9c0.1,0.2,0,0.4-0.2,0.5c-0.2,0.1-0.5,0.2-0.7,0.1c-0.2-0.1-0.3-0.5-0.1-0.7
	C26.8,23.5,27.3,23.4,27.5,23.9z M24.5,18.5c0.1-0.2,0.3-0.2,0.5-0.1c0.2,0,0.3,0.3,0.2,0.4c-0.1,0.2-0.3,0.1-0.5,0.1
	C24.5,18.8,24.5,18.6,24.5,18.5z M24.5,17.9C24.5,17.8,24.5,17.8,24.5,17.9c0.2-0.2,0.4-0.2,0.5-0.1c0.1,0.1,0.1,0.2,0,0.3
	c-0.1,0.1-0.3,0.1-0.5,0C24.5,18.1,24.5,18,24.5,17.9z M25.9,18.2c-0.2,0.1-0.4,0.1-0.6,0.1c-0.1-0.1-0.1-0.3-0.1-0.4
	c0.1-0.2,0.4-0.2,0.6-0.1C26,17.8,26,18.1,25.9,18.2z M26.1,18.5c0.1,0.1,0.2,0.3,0.1,0.5c-0.1,0.2-0.5,0.3-0.8,0.1
	c-0.1-0.1-0.2-0.5,0.1-0.6C25.7,18.4,25.9,18.3,26.1,18.5z M24.6,19.1c0.2-0.1,0.6-0.2,0.6,0.1c0.1,0.4-0.4,0.4-0.6,0.4
	C24.5,19.5,24.5,19.2,24.6,19.1z M24.6,19.9c0.2-0.2,0.4-0.2,0.7-0.2c0.1,0,0.2,0.2,0.2,0.4c0,0.1-0.1,0.2-0.1,0.2
	c-0.2,0.1-0.3,0.1-0.5,0.1C24.6,20.4,24.5,20.1,24.6,19.9z M24.7,20.7c0.2-0.2,0.4-0.2,0.6-0.1c0.1,0,0.2,0.2,0.2,0.3
	c0.1,0.4-0.5,0.5-0.7,0.4C24.7,21.2,24.6,20.9,24.7,20.7z M25.5,19.7c-0.1-0.4,0.4-0.5,0.7-0.5c0.2,0,0.3,0.4,0.1,0.6
	C26,19.9,25.6,20,25.5,19.7z M27.6,20.2c-0.1,0.2-0.5,0.2-0.7,0.2c-0.1,0-0.2-0.2-0.2-0.4c0-0.1,0-0.1,0.1-0.2
	c0.2-0.1,0.4-0.2,0.6-0.1C27.6,19.7,27.7,20,27.6,20.2z M27.7,20.6c0.1,0.1,0.1,0.3,0,0.4c-0.1,0.1-0.5,0.2-0.7,0.2
	c-0.1,0-0.2-0.2-0.2-0.2c0-0.1,0-0.2,0.1-0.3c0.1-0.1,0.3-0.1,0.5-0.1C27.5,20.5,27.6,20.5,27.7,20.6z M27.4,19.3
	c-0.1,0.2-0.7,0.3-0.8,0.1c-0.1-0.2-0.1-0.4,0-0.5c0.2-0.1,0.4-0.2,0.6-0.1C27.4,18.9,27.5,19.2,27.4,19.3z M27,18.6
	c-0.1,0.1-0.2,0.1-0.3,0.1c-0.2,0.1-0.4-0.1-0.4-0.2c0-0.3,0.3-0.3,0.5-0.4c0.2,0,0.2,0.1,0.3,0.2C27.1,18.5,27.1,18.6,27,18.6z
	 M25.7,20.2c0.2-0.1,0.7-0.3,0.8,0.1c0,0.2,0,0.3-0.1,0.4c-0.2,0.1-0.5,0.2-0.7,0.1C25.6,20.6,25.6,20.3,25.7,20.2z M25.9,21
	c0.2-0.2,0.7-0.3,0.8,0.1c0,0.1,0,0.2,0,0.3c-0.1,0.2-0.5,0.3-0.7,0.2C25.8,21.6,25.7,21.2,25.9,21z M26.1,21.9
	c0.2-0.1,0.5-0.2,0.7-0.1c0.1,0.1,0.2,0.3,0.1,0.4c-0.1,0.2-0.5,0.3-0.8,0.2C25.9,22.4,25.9,22,26.1,21.9z M27.1,21.8
	c0-0.1-0.1-0.3,0-0.4c0.2-0.2,0.6-0.3,0.8-0.1c0.1,0.2,0.1,0.4-0.1,0.5C27.6,22,27.2,22.1,27.1,21.8z M28.4,19.6
	c0.1,0,0.2,0.1,0.2,0.2c0.1,0.1,0,0.3,0,0.3c-0.1,0.1-0.5,0.3-0.7,0.2c-0.1-0.1-0.2-0.2-0.2-0.3C27.7,19.7,28.1,19.6,28.4,19.6z
	 M28.3,19.1c0.1,0.1,0.1,0.3,0,0.3c-0.1,0.2-0.5,0.3-0.6,0.2c-0.1-0.1-0.2-0.3-0.1-0.4c0.1-0.1,0.4-0.2,0.6-0.2
	C28.2,19,28.3,19,28.3,19.1z M27.9,18.2c0.2,0,0.2,0.3,0.2,0.4c0,0.1-0.1,0.2-0.2,0.2c-0.1,0.1-0.3,0.1-0.4,0
	c-0.1-0.1-0.2-0.2-0.1-0.4C27.4,18.3,27.7,18.2,27.9,18.2z M27.7,17.8c0.1,0.2-0.1,0.2-0.2,0.3c-0.1,0.1-0.3,0.1-0.4,0
	c-0.1-0.1-0.2-0.3,0-0.4C27.2,17.6,27.6,17.5,27.7,17.8z M27.2,17.2c0.1,0,0.1,0.1,0.1,0.1c0,0.1,0,0.2-0.1,0.2
	c-0.1,0.1-0.2,0.1-0.3,0.1c-0.1,0-0.2-0.2-0.2-0.3C26.8,17.2,27,17.2,27.2,17.2z M26.8,16.7c0.1,0,0.1,0.1,0.1,0.2
	c0,0.1-0.1,0.1-0.1,0.1c-0.1,0.1-0.2,0-0.3,0C26.4,16.8,26.7,16.7,26.8,16.7z M26.7,17.6c0.1,0.1,0.2,0.2,0.1,0.3
	c-0.1,0.1-0.2,0.1-0.4,0.2c-0.1,0-0.2-0.1-0.3-0.1c0-0.1,0-0.2,0-0.3C26.3,17.5,26.5,17.5,26.7,17.6z M26.4,17.1
	c0.1,0.1,0,0.3-0.1,0.3c-0.1,0.1-0.3,0.1-0.4,0c-0.1-0.1,0-0.3,0.1-0.3C26.2,17,26.3,16.9,26.4,17.1z M25.7,16.7
	c0.1-0.2,0.2-0.2,0.4-0.2c0,0,0.1,0.1,0.1,0.1c0,0.1,0,0.2-0.1,0.3c-0.1,0.1-0.2,0.1-0.3,0.1C25.7,16.9,25.7,16.8,25.7,16.7z
	 M25.8,17.3c0,0.1-0.1,0.2-0.2,0.2c-0.1,0-0.3,0-0.4,0c-0.1-0.1-0.1-0.2,0-0.3c0.1-0.2,0.3-0.2,0.5-0.2
	C25.7,17.1,25.8,17.2,25.8,17.3z M25,16.7c0-0.2,0.2-0.3,0.4-0.2c0.1,0,0.2,0.2,0.1,0.3c0,0-0.1,0.1-0.2,0.1
	C25.1,17,25,16.9,25,16.7z M24.9,17.6c-0.2,0-0.4,0.1-0.4-0.1c-0.1-0.3,0.3-0.3,0.4-0.3C25.1,17.3,25.1,17.5,24.9,17.6z M24.5,16.9
	c0,0,0.1-0.1,0.1-0.1c0.1,0,0.2,0,0.2,0c0.1,0.1,0.1,0.2,0,0.3c-0.1,0-0.2,0-0.2,0C24.5,17.1,24.4,17,24.5,16.9z M24,17.2
	c0.1,0,0.2,0,0.3,0c0.1,0.1,0,0.3-0.2,0.3c-0.1,0-0.1,0-0.2,0C23.9,17.4,23.9,17.2,24,17.2z M23.9,17.7c0.1,0,0.3,0,0.4,0
	c0,0,0.1,0.1,0.1,0.2c0,0.1-0.1,0.2-0.3,0.2c-0.1,0-0.2,0-0.3-0.1C23.8,17.9,23.8,17.7,23.9,17.7z M24.3,18.3c0.1,0,0.1,0.1,0.1,0.1
	c0,0.1,0,0.3-0.1,0.3c-0.2,0-0.5,0-0.5-0.2C23.7,18.2,24.1,18.2,24.3,18.3z M23.7,19c0.2-0.1,0.5-0.1,0.6,0.1
	c0.1,0.1,0.1,0.4-0.1,0.4c-0.1,0-0.6,0.1-0.7-0.1C23.6,19.2,23.6,19,23.7,19z M23.6,19.7c0.2-0.2,0.4-0.1,0.6-0.1c0,0,0.1,0,0.1,0.1
	c0.1,0.1,0.2,0.4,0,0.5c-0.2,0.1-0.4,0-0.6,0c-0.1,0-0.1-0.1-0.1-0.1C23.5,20,23.5,19.8,23.6,19.7z M23.6,20.7
	c0.1-0.3,0.5-0.3,0.8-0.1c0.2,0.1,0.2,0.4,0,0.6c-0.2,0.1-0.4,0.1-0.6,0C23.5,21.1,23.5,20.9,23.6,20.7z M23.7,21.7
	c-0.1-0.1,0-0.3,0.1-0.3c0.2-0.1,0.5-0.1,0.7,0c0.1,0,0.2,0.2,0.2,0.4c0,0.1,0,0.2-0.1,0.2c-0.1,0.1-0.4,0.1-0.5,0.1
	C23.9,22,23.8,21.8,23.7,21.7z M24.6,22.8c-0.2-0.1-0.3-0.3-0.4-0.5c0,0,0-0.1,0-0.1c0.3-0.1,0.5,0.1,0.5,0.4
	C24.7,22.7,24.7,22.9,24.6,22.8z M24.8,21.6c0-0.1,0.1-0.1,0.2-0.1c0.2-0.1,0.4-0.1,0.6,0c0.1,0,0.1,0.1,0.1,0.2
	c0,0.2,0,0.3-0.1,0.3c-0.2,0.1-0.4,0.1-0.6,0.1C24.8,22.1,24.8,21.8,24.8,21.6z M25.1,22.4c0.3-0.2,0.7-0.3,0.8,0.2
	c0,0.1,0,0.3-0.2,0.4c-0.2,0.1-0.4,0.1-0.6,0.1C24.9,22.9,24.9,22.5,25.1,22.4z M25,23.5c0,0,0-0.1,0-0.2c0.2-0.2,0.5-0.2,0.7-0.1
	c0.3,0,0.4,0.3,0.3,0.5C26,24,25.5,24,25.4,24C25.3,23.9,25.2,23.7,25,23.5z M25.6,24.4c0,0-0.1-0.2,0-0.2c0.4-0.1,0.7-0.1,0.8,0.3
	c0.1,0.3-0.1,0.5-0.4,0.4C25.8,24.9,25.7,24.6,25.6,24.4z M26.4,25.8c-0.2-0.2-0.2-0.5-0.4-0.7c0.2-0.1,0.4-0.1,0.5,0.1
	C26.6,25.5,26.6,25.7,26.4,25.8C26.4,25.8,26.4,25.9,26.4,25.8z M26.7,26.6c-0.1,0-0.1-0.2-0.1-0.2c0-0.1-0.1-0.2-0.1-0.3
	C26.7,26.2,26.7,26.4,26.7,26.6z M27.1,26c0,0.1-0.1,0.2-0.1,0.4c0,0.1-0.1,0-0.1,0c-0.1-0.2-0.1-0.4-0.1-0.5c0-0.1,0.2-0.2,0.3-0.2
	C27.2,25.7,27.1,25.9,27.1,26z M27.4,24.8c-0.1,0.2-0.1,0.3-0.1,0.4c-0.1,0.1-0.3,0.2-0.5,0.1c-0.2-0.1-0.4-0.5-0.1-0.7
	c0.2-0.1,0.4-0.2,0.6-0.2c0,0,0.2,0,0.2,0C27.5,24.6,27.5,24.6,27.4,24.8z M27.8,23.7c-0.1,0.1-0.2-0.2-0.2-0.3
	c-0.1-0.4,0.3-0.5,0.6-0.5C28.1,23.1,27.9,23.5,27.8,23.7z M28.2,22.5c-0.1,0.2-0.3,0.2-0.5,0.3c0,0-0.2,0-0.2-0.1
	c-0.1-0.1-0.2-0.2-0.2-0.4c0-0.1,0.1-0.2,0.2-0.2c0.2-0.1,0.4-0.2,0.6-0.1C28.2,22.2,28.3,22.4,28.2,22.5z M28.9,21.4
	c-0.1,0.2-0.2,0.4-0.4,0.6c-0.1,0.1-0.2,0-0.3-0.1c-0.1-0.1-0.2-0.3-0.1-0.4c0.2-0.2,0.5-0.3,0.7-0.3C28.9,21.3,29,21.3,28.9,21.4z
	 M31,27.3C31,27.3,31,27.3,31,27.3L31,27.3z"/>
<path fill="#FFFFFF" d="M15.8,14c-0.5,0.4-0.6,0.6-0.8,1.1c-0.2,0.3-0.4,0.7-0.4,1.1c0.9-0.4,1.7-1.1,2.4-1.9
	c0.5-0.6,0.9-1.4,1.4-1.9C17.4,12.7,16.5,13.3,15.8,14z"/>
<path fill="#FFFFFF" d="M13.1,15.2c0.3-0.6,0.8-1.2,1.4-1.7c-0.2,0.5-0.5,1.1-0.6,1.7c-0.2,1.3-0.4,2.2-0.6,3.3
	c0.6-0.4,1.2-1.1,1.8-1.5c0.5-0.3,0.9-0.6,1.4-0.9c0.3-0.2,0.5-0.5,0.7-0.7c-0.3,1.2-1.3,2.4-2.1,3c-0.9,0.7-1.3,0.8-2.8,2.4
	C12.1,18.9,12.1,16.9,13.1,15.2z"/>
<path fill="#FFFFFF" d="M10,21.6c0.1-1,0.2-1.8,0.4-2.8c0.2-0.7,0.5-1.7,1.1-2.1c-0.1,0.2-0.1,0.6-0.1,0.9c-0.1,1,0.1,2.2,0.1,3.2
	c0,0.5,0,0.9-0.1,1.4c-0.1,0.5,0,1.1,0,1.1s0.3-0.3,0.5-0.7c0.5-0.8,0.7-1.1,1.1-1.5c0.5-0.6,1.1-1.1,1.8-1.6
	c-0.1,0.3-0.4,0.9-0.6,1.2C14.1,21,14,21.3,13.6,22c-0.6,1-0.9,1.2-1.6,2.3c-0.2,0.2-0.8,1.2-0.9,1.5c-0.3-0.7-0.4-1.3-0.8-2.4
	C10,22.7,10,22.1,10,21.6z"/>
<path fill="#FFFFFF" d="M9.1,26.8c-0.4-1-0.6-1.9-0.7-2.9c-0.1-0.6,0-1.5,0.2-2.1c0.1,0.1,0.2,0.5,0.2,0.6c0.2,0.6,0.2,0.8,0.5,1.4
	c0.2,0.4,0.4,0.8,0.6,1.2c0.2,0.4,0.4,0.9,0.5,1.3c0.5,1.2,0.5,2.4,0.7,2.5c0.1-0.3,0.2-0.6,0.2-0.7c0.1-1.3,0.3-2.6,2-4.2
	c0.2,0.5,0.1,1.3,0,1.8c-0.2,1-0.4,1.5-0.8,2.5c-0.2,0.5-0.6,1.3-0.6,1.5c-0.2,0.7-0.3,1-0.4,1.4C10.6,29.6,9.7,28.3,9.1,26.8z"/>
<path fill="#FFFFFF" d="M10.4,32.9c-0.6-0.8-0.8-1.2-1.1-2c-0.3-0.7-0.4-1-0.6-1.8c-0.1-0.4-0.2-0.8-0.1-1.1
	c0.4,0.8,0.8,1.7,1.3,2.4c0.5,0.5,0.9,1,1.3,1.4c0.6,0.7,1,1.3,1.6,2.1c0-0.4,0.1-0.7,0-1.3c-0.1-0.8,0-1.5,0.1-2.2
	c0.2-1,0.3-1.5,0.7-2.5c0.4,0.8,0.4,1.8,0.5,2.7c0.2,1.7-0.3,3.7-0.4,4.6c0,0.2,0,0.8,0,1c-0.8-0.6-1.5-1.3-2.2-1.9
	C11.1,33.8,10.7,33.3,10.4,32.9z"/>
<path fill="#FFFFFF" d="M13.4,39.1c-0.4-0.3-1.3-1-1.8-1.6c-0.7-0.9-0.8-1.2-1.3-2.2c-0.1-0.1-0.3-0.7-0.3-1.1
	c1.4,1.7,2.7,2,4.1,3.5c0.5,0.5,1,1,1.3,1.3c0.2,0.2,0.5,0.3,0.5,0.3s0-0.4-0.2-0.6c-0.9-1.8-1.1-3.6-1-5.6c0.4,0.5,0.6,0.9,0.8,1.4
	c0.3,0.5,0.4,0.9,0.6,1.2c0.8,2,1,4.2,1.5,5.4C16.2,40.5,15,40.3,13.4,39.1z"/>
<path fill="#FFFFFF" d="M19.6,43.8c-0.4,0-1.2,0-1.6,0c-2.2-0.3-4.2-1.9-5.2-3.6c0.9,0.6,1.6,0.9,2.4,1.2c0.7,0.2,1.4,0.3,2.6,0.7
	c0.7,0.2,1.4,0.5,1.7,0.6c0.8,0.3,1.1,0.2,1.1,0.2s0-0.1-0.3-0.4c-0.6-0.6-0.8-0.8-1.3-1.3c-0.2-0.2-0.5-0.7-0.7-1.1
	c-0.5-1.1-0.6-1.9-1.1-3.1c1.8,1,2.6,2.5,3.6,4.3c0.3,0.6,0.7,1.2,1,1.5c0.2,0.2,0.6,0.6,0.6,0.6s-0.2,0.1-1,0.2
	C21,43.5,20.2,43.7,19.6,43.8z"/>
<path fill="#FFFFFF" d="M28.1,43.9c0.9,0.2,1.8,0.4,2.6,0.7c0.2,0.1,0.6,0.3,0.8,0.4c0.6,0.3,0.9,0.5,1.5,0.9
	c0.8,0.6,1.7,1.2,2.5,2.1c0,0,0.1,0.2,0.1,0.2c-0.2,0.1-0.5,0.3-0.7,0.2c-0.7-0.7-0.7-0.9-1.6-1.7c-0.2-0.2-0.6-0.5-1-0.8
	c-0.4-0.3-0.9-0.6-1.3-0.8c-0.4-0.2-1-0.3-1.4-0.3l0,0c-0.2,0-1.1,0-1.3,0c-1.8,0.1-1.7,0.3-2.8,0.6c-0.9,0.2-1.8,0.4-2.7,0.5
	C21.8,46,21,46.1,20.1,46c-1.2-0.1-2.5-0.5-3.5-1.1c0.9,0,1.8,0.2,2.7,0.1c0.4,0,1-0.1,1.4-0.2c0.8-0.3,1.3-0.3,2.2-0.6
	c0.7-0.2,1.5-0.3,2.3-0.4C26.2,43.7,27.2,43.7,28.1,43.9z"/>
<path fill="#FFFFFF" d="M44.8,14c0.5,0.4,0.6,0.6,0.8,1.1c0.2,0.3,0.4,0.7,0.4,1.1c-0.9-0.4-1.7-1.1-2.4-1.9
	c-0.5-0.6-0.9-1.4-1.4-1.9C43.2,12.7,44.1,13.3,44.8,14z"/>
<path fill="#FFFFFF" d="M47.4,15.2c-0.3-0.6-0.8-1.2-1.4-1.7c0.2,0.6,0.6,1.3,0.6,1.7c0.1,1.3,0.4,2.2,0.6,3.3
	c-0.6-0.4-1.2-1.1-1.8-1.5c-0.5-0.3-0.9-0.6-1.4-0.9c-0.3-0.2-0.5-0.5-0.7-0.7c0.3,1.2,1.3,2.4,2.1,3c0.9,0.7,1.3,0.8,2.8,2.4
	C48.5,18.9,48.4,16.9,47.4,15.2z"/>
<path fill="#FFFFFF" d="M50.5,21.6c-0.1-1-0.2-1.8-0.4-2.8c-0.2-0.7-0.5-1.7-1.1-2.1c0.1,0.2,0.1,0.6,0.1,0.9c0.1,1-0.1,2.2-0.1,3.2
	c0,0.5,0,0.9,0.1,1.4c0.1,0.5,0,1.1,0,1.1s-0.3-0.3-0.5-0.7c-0.5-0.8-0.7-1.1-1.1-1.5c-0.5-0.6-1.1-1.1-1.8-1.6
	c0.1,0.3,0.4,0.9,0.6,1.2c0.2,0.3,0.3,0.6,0.7,1.4c0.6,1,0.9,1.2,1.6,2.3c0.2,0.2,0.8,1.2,0.9,1.5c0.3-0.7,0.5-1.3,0.8-2.4
	C50.6,22.7,50.6,22.1,50.5,21.6z"/>
<path fill="#FFFFFF" d="M51.5,26.8c0.4-1,0.6-1.9,0.7-2.9c0.1-0.6,0-1.5-0.2-2.1c-0.1,0.1-0.2,0.5-0.2,0.6c-0.2,0.6-0.2,0.8-0.5,1.4
	c-0.2,0.4-0.4,0.8-0.6,1.2c-0.2,0.4-0.4,0.9-0.5,1.3c-0.5,1.2-0.5,2.4-0.7,2.5c-0.1-0.3-0.2-0.6-0.2-0.7c-0.1-1.3-0.3-2.6-2-4.2
	c-0.2,0.5-0.1,1.3,0,1.8c0.2,1,0.4,1.5,0.8,2.5c0.2,0.5,0.6,1.3,0.6,1.5c0.2,0.7,0.3,1,0.4,1.4C49.9,29.6,50.9,28.3,51.5,26.8z"/>
<path fill="#FFFFFF" d="M50.2,32.9c0.6-0.8,0.8-1.2,1.1-2c0.3-0.7,0.4-1,0.6-1.8c0.1-0.4,0.2-0.8,0.1-1.1c-0.4,0.8-0.8,1.7-1.3,2.4
	c-0.5,0.5-0.9,1-1.3,1.4c-0.6,0.7-1,1.3-1.6,2.1c0-0.4-0.1-0.7,0-1.3c0.1-0.8,0-1.5-0.1-2.2c-0.2-1-0.3-1.5-0.7-2.5
	c-0.4,0.8-0.4,1.8-0.5,2.7c-0.2,1.7,0.3,3.7,0.4,4.6c0,0.2,0,0.8,0,1c0.8-0.6,1.5-1.3,2.2-1.9C49.5,33.8,49.9,33.3,50.2,32.9z"/>
<path fill="#FFFFFF" d="M47.2,39.1c0.4-0.3,1.3-1,1.8-1.6c0.7-0.9,0.8-1.2,1.3-2.2c0.1-0.1,0.3-0.7,0.3-1.1c-1.4,1.7-2.7,2-4.1,3.5
	c-0.5,0.5-1,1-1.3,1.3c-0.2,0.2-0.5,0.3-0.5,0.3s0-0.4,0.2-0.6c0.9-1.8,1.1-3.6,1-5.6c-0.4,0.5-0.6,0.9-0.8,1.4
	c-0.3,0.5-0.4,0.9-0.6,1.2c-0.8,2-1,4.2-1.5,5.4C44.4,40.5,45.6,40.3,47.2,39.1z"/>
<path fill="#FFFFFF" d="M41,43.8c0.4,0,1.2,0,1.6,0c2.2-0.3,4.2-1.9,5.2-3.6c-0.9,0.6-1.6,0.9-2.4,1.2c-0.7,0.2-1.4,0.3-2.6,0.7
	c-0.7,0.2-1.4,0.5-1.7,0.6c-0.8,0.3-1.1,0.2-1.1,0.2s0-0.1,0.3-0.4c0.6-0.6,0.8-0.8,1.3-1.3c0.2-0.2,0.5-0.7,0.7-1.1
	c0.5-1.1,0.6-1.9,1.1-3.1c-1.8,1-2.6,2.5-3.6,4.3c-0.3,0.6-0.7,1.2-1,1.5c-0.2,0.2-0.6,0.6-0.6,0.6s0.2,0.1,1,0.2
	C39.6,43.5,40.3,43.7,41,43.8z"/>
<path fill="#FFFFFF" d="M32.5,43.9c-0.9,0.2-1.8,0.4-2.6,0.7c-0.2,0.1-0.6,0.3-0.8,0.4c-0.6,0.3-0.9,0.5-1.5,0.9
	c-0.8,0.6-1.7,1.2-2.5,2.1c0,0-0.1,0.2-0.1,0.2c0.2,0.1,0.5,0.3,0.7,0.2c0.7-0.7,0.7-0.9,1.6-1.7c0.2-0.2,0.6-0.5,1-0.8
	c0.4-0.3,0.9-0.6,1.3-0.8c0.4-0.2,1-0.3,1.4-0.3l0,0c0.2,0,1.1,0,1.3,0c1.8,0.1,1.7,0.3,2.8,0.6c0.9,0.2,1.8,0.4,2.7,0.5
	c0.9,0.1,1.8,0.1,2.7,0.1c1.2-0.1,2.5-0.5,3.5-1.1c-0.9,0-1.8,0.2-2.7,0.1c-0.4,0-1-0.1-1.4-0.2c-0.8-0.3-1.3-0.3-2.2-0.6
	c-0.7-0.2-1.5-0.3-2.3-0.4C34.4,43.7,33.4,43.7,32.5,43.9z"/>
<path fill="#FFFFFF" d="M29.1,3.8l-1.6,6.1h-1.7l-1.1-4l-1.1,4h-1.7l-1.6-6.1h1.6L22.8,8l1.1-4.2h1.6L26.6,8l1-4.2H29.1z"/>
<path fill="#FFFFFF" d="M34.5,5h-2.8v1.1h2.6v1.2h-2.6v2.6h-1.6V3.8h4.4V5z"/>
<path fill="#FFFFFF" d="M40.6,5.7c0,0.3,0,0.5-0.1,0.8c-0.1,0.3-0.2,0.5-0.4,0.7c-0.2,0.2-0.5,0.4-0.8,0.5c-0.3,0.1-0.7,0.2-1.1,0.2
	h-1v2h-1.6V3.8h2.6c0.4,0,0.7,0,1,0.1c0.3,0.1,0.5,0.2,0.7,0.3c0.2,0.2,0.4,0.4,0.6,0.6C40.6,5.1,40.6,5.4,40.6,5.7z M39,5.8
	c0-0.2,0-0.3-0.1-0.4c-0.1-0.1-0.2-0.2-0.3-0.3C38.4,5,38.2,5,38.1,5c-0.2,0-0.4,0-0.6,0h-0.3v1.8h0.4c0.3,0,0.5,0,0.7,0
	c0.2,0,0.3-0.1,0.4-0.2c0.1-0.1,0.2-0.2,0.2-0.3C39,6.1,39,5.9,39,5.8z"/>
<path fill="#FFFFFF" d="M17.7,52.3l-1.1,3.5h-1.2l-0.7-2.4L14,55.9h-1.2l-1.1-3.5h1.2l0.6,2.4l0.8-2.4h1l0.7,2.4l0.6-2.4H17.7z"/>
<path fill="#FFFFFF" d="M20.5,51.8L20.5,51.8c-0.1,0-0.2,0-0.3,0c-0.1,0-0.2,0-0.3,0c-0.2,0-0.4,0-0.5,0.1c-0.1,0.1-0.1,0.2-0.1,0.5
	v0h0.9v0.8h-0.8v2.8h-1.1v-2.8h-0.5v-0.8h0.5v-0.1c0-0.4,0.1-0.8,0.3-1c0.2-0.2,0.6-0.3,1-0.3c0.2,0,0.3,0,0.5,0c0.1,0,0.3,0,0.4,0
	V51.8z"/>
<path fill="#FFFFFF" d="M24.3,54c0,0.3,0,0.6-0.1,0.8c-0.1,0.2-0.2,0.4-0.3,0.6c-0.2,0.2-0.3,0.3-0.5,0.4c-0.2,0.1-0.4,0.1-0.6,0.1
	c-0.2,0-0.4,0-0.5-0.1c-0.1,0-0.3-0.1-0.4-0.2v1.5h-1.1v-4.8h1.1v0.4c0.2-0.1,0.4-0.3,0.5-0.3c0.2-0.1,0.4-0.1,0.6-0.1
	c0.4,0,0.8,0.2,1,0.5C24.2,53,24.3,53.5,24.3,54z M23.2,54.1c0-0.3-0.1-0.6-0.2-0.7c-0.1-0.2-0.3-0.2-0.6-0.2c-0.1,0-0.2,0-0.3,0
	c-0.1,0-0.2,0.1-0.3,0.1v1.8c0.1,0,0.2,0,0.2,0.1c0.1,0,0.2,0,0.3,0c0.3,0,0.5-0.1,0.7-0.3C23.1,54.7,23.2,54.4,23.2,54.1z"/>
<path fill="#FFFFFF" d="M37.6,55.9h-1.2v-1.2h1.2V55.9z"/>
<path fill="#FFFFFF" d="M42,54.1c0,0.6-0.2,1-0.5,1.4c-0.3,0.3-0.8,0.5-1.4,0.5c-0.6,0-1.1-0.2-1.4-0.5c-0.3-0.3-0.5-0.8-0.5-1.4
	c0-0.6,0.2-1,0.5-1.4c0.3-0.3,0.8-0.5,1.4-0.5c0.6,0,1.1,0.2,1.4,0.5C41.8,53.1,42,53.5,42,54.1z M40.6,55c0.1-0.1,0.1-0.2,0.2-0.3
	c0-0.1,0.1-0.3,0.1-0.5c0-0.2,0-0.4-0.1-0.5c0-0.1-0.1-0.3-0.2-0.3c-0.1-0.1-0.1-0.1-0.2-0.2c-0.1,0-0.2-0.1-0.3-0.1
	c-0.1,0-0.2,0-0.3,0c-0.1,0-0.2,0.1-0.2,0.2c-0.1,0.1-0.1,0.2-0.2,0.3c0,0.1-0.1,0.3-0.1,0.5c0,0.2,0,0.4,0.1,0.5
	c0,0.1,0.1,0.3,0.2,0.3c0.1,0.1,0.1,0.1,0.2,0.2c0.1,0,0.2,0.1,0.3,0.1c0.1,0,0.2,0,0.3-0.1C40.5,55.1,40.5,55,40.6,55z"/>
<path fill="#FFFFFF" d="M45,53.4h-0.1c0,0-0.1,0-0.2,0c-0.1,0-0.2,0-0.3,0c-0.2,0-0.3,0-0.4,0c-0.1,0-0.3,0.1-0.4,0.1v2.4h-1.1v-3.5
	h1.1v0.5c0.2-0.2,0.5-0.4,0.6-0.4c0.2-0.1,0.4-0.1,0.5-0.1c0,0,0.1,0,0.1,0c0,0,0.1,0,0.1,0V53.4z"/>
<path fill="#FFFFFF" d="M48.8,55.5c0,0.3,0,0.6-0.1,0.8c-0.1,0.2-0.2,0.4-0.4,0.5c-0.2,0.1-0.4,0.2-0.6,0.3
	c-0.2,0.1-0.5,0.1-0.8,0.1c-0.2,0-0.5,0-0.7,0c-0.2,0-0.4-0.1-0.6-0.1v-0.9h0.1c0.1,0.1,0.3,0.1,0.5,0.1c0.2,0,0.4,0.1,0.5,0.1
	c0.2,0,0.4,0,0.5-0.1c0.1,0,0.2-0.1,0.3-0.2c0.1-0.1,0.1-0.2,0.1-0.3c0-0.1,0-0.2,0-0.4v-0.1c-0.1,0.1-0.3,0.2-0.5,0.3
	c-0.2,0.1-0.3,0.1-0.6,0.1c-0.5,0-0.9-0.1-1.1-0.4c-0.3-0.3-0.4-0.8-0.4-1.4c0-0.3,0-0.5,0.1-0.8c0.1-0.2,0.2-0.4,0.3-0.6
	c0.1-0.1,0.3-0.3,0.5-0.3c0.2-0.1,0.4-0.1,0.6-0.1c0.2,0,0.4,0,0.5,0.1c0.2,0,0.3,0.1,0.4,0.2l0-0.2h1.1V55.5z M47.7,54.7v-1.6
	c-0.1,0-0.1,0-0.2-0.1c-0.1,0-0.2,0-0.3,0c-0.3,0-0.5,0.1-0.7,0.3c-0.1,0.2-0.2,0.4-0.2,0.7c0,0.3,0.1,0.6,0.2,0.7
	c0.1,0.1,0.3,0.2,0.6,0.2c0.1,0,0.2,0,0.3-0.1C47.5,54.9,47.6,54.8,47.7,54.7z"/>
<path fill="#FFFFFF" d="M28.3,55.9h-1.1v-0.4c-0.2,0.2-0.4,0.3-0.6,0.4C26.4,55.9,26.2,56,26,56c-0.4,0-0.7-0.1-0.9-0.3
	c-0.2-0.2-0.3-0.6-0.3-1v-2.3h1.1v1.7c0,0.2,0,0.3,0,0.4c0,0.1,0,0.2,0.1,0.3c0,0.1,0.1,0.1,0.2,0.2c0.1,0,0.2,0.1,0.3,0.1
	c0.1,0,0.2,0,0.3-0.1c0.1,0,0.2-0.1,0.3-0.2v-2.5h1.1V55.9z"/>
<path fill="#FFFFFF" d="M32.1,54.7c0,0.4-0.2,0.7-0.5,0.9c-0.3,0.2-0.8,0.3-1.3,0.3c-0.3,0-0.6,0-0.9-0.1c-0.3-0.1-0.5-0.1-0.6-0.2
	v-0.9h0.1c0.1,0,0.1,0.1,0.2,0.1c0.1,0,0.2,0.1,0.3,0.2c0.1,0,0.3,0.1,0.4,0.1c0.1,0,0.3,0.1,0.5,0.1c0.2,0,0.4,0,0.5-0.1
	c0.1,0,0.2-0.1,0.2-0.2c0-0.1,0-0.1-0.1-0.2c-0.1,0-0.2-0.1-0.4-0.1c-0.1,0-0.2,0-0.3-0.1c-0.1,0-0.3,0-0.4-0.1
	c-0.3-0.1-0.6-0.2-0.7-0.4c-0.2-0.2-0.2-0.4-0.2-0.7c0-0.3,0.2-0.6,0.5-0.8c0.3-0.2,0.8-0.3,1.3-0.3c0.3,0,0.5,0,0.8,0.1
	c0.2,0.1,0.4,0.1,0.6,0.2v0.9h-0.1c-0.2-0.1-0.4-0.2-0.6-0.3C31.1,53,30.8,53,30.6,53c-0.2,0-0.3,0-0.5,0.1c-0.1,0-0.2,0.1-0.2,0.2
	c0,0.1,0,0.1,0.1,0.2c0.1,0,0.2,0.1,0.4,0.1c0.1,0,0.2,0,0.4,0.1c0.1,0,0.3,0,0.4,0.1c0.3,0.1,0.5,0.2,0.7,0.4
	C32,54.3,32.1,54.5,32.1,54.7z"/>
<path fill="#FFFFFF" d="M34.7,55.5c-0.1,0-0.1,0.1-0.2,0.2c-0.1,0.1-0.2,0.1-0.3,0.2c-0.1,0-0.2,0.1-0.3,0.1c-0.1,0-0.3,0-0.4,0
	c-0.3,0-0.6-0.1-0.8-0.3c-0.2-0.2-0.3-0.5-0.3-0.8c0-0.3,0.1-0.5,0.2-0.6c0.1-0.2,0.3-0.3,0.5-0.4c0.2-0.1,0.5-0.2,0.8-0.2
	c0.3,0,0.6-0.1,1-0.1v0c0-0.2-0.1-0.3-0.2-0.4C34.3,53.1,34,53,33.7,53c-0.2,0-0.4,0-0.6,0.1c-0.2,0.1-0.4,0.1-0.5,0.2h-0.1v-0.8
	c0.1,0,0.3-0.1,0.6-0.1c0.3,0,0.5-0.1,0.8-0.1c0.6,0,1.1,0.1,1.4,0.3c0.3,0.2,0.4,0.5,0.4,0.9v2.4h-1.1V55.5z M34.7,54.9v-0.7
	c-0.2,0-0.3,0-0.5,0.1c-0.2,0-0.3,0-0.4,0.1c-0.1,0-0.2,0.1-0.3,0.2c-0.1,0.1-0.1,0.2-0.1,0.3c0,0.1,0,0.1,0,0.2c0,0,0,0.1,0.1,0.1
	c0,0,0.1,0.1,0.2,0.1c0.1,0,0.2,0,0.3,0c0.1,0,0.2,0,0.3-0.1C34.5,55.1,34.6,55,34.7,54.9z"/>
</svg>
